<?xml version="1.0" encoding="UTF-8"?>
<svg version="1.1" xmlns="http://www.w3.org/2000/svg" width="480" height="270">
<path d="M0 0 C158.4 0 316.8 0 480 0 C480 89.1 480 178.2 480 270 C321.6 270 163.2 270 0 270 C0 180.9 0 91.8 0 0 Z " fill="#373737" transform="translate(0,0)"/>
<path d="M0 0 C2.5 1.8125 2.5 1.8125 4 4 C4 4.99 4 5.98 4 7 C4.84304687 6.97679687 5.68609375 6.95359375 6.5546875 6.9296875 C8.19824219 6.90261719 8.19824219 6.90261719 9.875 6.875 C11.51082031 6.84019531 11.51082031 6.84019531 13.1796875 6.8046875 C16 7 16 7 18 9 C18 9.99 18 10.98 18 12 C18.99 12.495 18.99 12.495 20 13 C19.34 13 18.68 13 18 13 C17.67 14.65 17.34 16.3 17 18 C11.07353601 18.0987934 5.14755005 18.17143282 -0.77954102 18.21972656 C-2.79622749 18.23985609 -4.81285551 18.26716237 -6.8293457 18.30175781 C-9.72622082 18.35021722 -12.62232515 18.37295499 -15.51953125 18.390625 C-16.42274612 18.41127014 -17.325961 18.43191528 -18.25654602 18.45318604 C-24.52923544 18.45544041 -24.52923544 18.45544041 -27.0925293 15.97558594 C-27.39199463 15.32364258 -27.69145996 14.67169922 -28 14 C-28.99 15.65 -29.98 17.3 -31 19 C-2.62 19 25.76 19 55 19 C55.33 53.98 55.66 88.96 56 125 C57.32 123.68 58.64 122.36 60 121 C66.53678649 118.81777974 72.62679555 118.62556431 79.1875 120.6875 C81.3371308 121.27213937 81.3371308 121.27213937 84 119 C87.1875 118.875 87.1875 118.875 90 119 C90.33 119.66 90.66 120.32 91 121 C89.9275 121.0825 88.855 121.165 87.75 121.25 C83.48694922 122.10261016 82.9362646 123.03082071 80 126 C77.52636719 127.37207031 77.52636719 127.37207031 74.796875 128.578125 C73.8171875 129.01640625 72.8375 129.4546875 71.828125 129.90625 C70.81234375 130.3496875 69.7965625 130.793125 68.75 131.25 C67.71875 131.70890625 66.6875 132.1678125 65.625 132.640625 C63.08685703 133.76868854 60.54526205 134.88811568 58 136 C58.495 138.475 58.495 138.475 59 141 C66.69061922 138.66791528 73.77719335 135.41694378 80.97851562 131.87695312 C81.82736328 131.47798828 82.67621094 131.07902344 83.55078125 130.66796875 C84.31044189 130.29953857 85.07010254 129.9311084 85.8527832 129.55151367 C88 129 88 129 90.14990234 129.73608398 C92.88535497 131.60484068 94.49304225 134.16600417 96.3125 136.875 C101.32389706 144.1378237 106.61583433 151.16527703 111.99731445 158.15771484 C112.61695068 158.97320801 113.23658691 159.78870117 113.875 160.62890625 C114.42929687 161.35150635 114.98359375 162.07410645 115.5546875 162.81860352 C117.08651633 165.13057828 118.05956034 167.39752727 119 170 C121.475 169.01 121.475 169.01 124 168 C125.65 169.98 127.3 171.96 129 174 C127.51122091 177.80558699 125.47814104 179.31249377 122.125 181.5625 C116.98357163 185.14591977 112.49129587 189.08501471 108.06103516 193.49438477 C105.04365722 196.40322762 104.398222 197 100 197 C97.6875 194.75 97.6875 194.75 96 192 C96.375 189.9375 96.375 189.9375 97 188 C96.57540068 185.73403336 96.57540068 185.73403336 95 184 C93.00730264 183.62547582 91.00545207 183.29878607 89 183 C76.35625757 180.07161279 68.80845747 171.98886109 60 163 C58.02 161.02 58.02 161.02 56 159 C55.67 165.93 55.34 172.86 55 180 C16.06 180 -22.88 180 -63 180 C-63 126.87 -63 73.74 -63 19 C-52.77 19 -42.54 19 -32 19 C-31.67 17.35 -31.34 15.7 -31 14 C-29.68352881 13.30062468 -28.34977849 12.63270867 -27 12 C-26.26676204 9.98491642 -26.26676204 9.98491642 -26 8 C-25 7 -25 7 -22.27734375 6.90234375 C-20.62412109 6.91974609 -20.62412109 6.91974609 -18.9375 6.9375 C-17.28041016 6.95103516 -17.28041016 6.95103516 -15.58984375 6.96484375 C-14.73519531 6.97644531 -13.88054687 6.98804688 -13 7 C-12.731875 6.21625 -12.46375 5.4325 -12.1875 4.625 C-9.78519722 -0.68535352 -5.24615744 -0.87611885 0 0 Z " fill="#F9F9F9" transform="translate(243,40)"/>
<path d="M0 0 C2.5 1.8125 2.5 1.8125 4 4 C4 4.99 4 5.98 4 7 C4.84304687 6.97679687 5.68609375 6.95359375 6.5546875 6.9296875 C8.19824219 6.90261719 8.19824219 6.90261719 9.875 6.875 C11.51082031 6.84019531 11.51082031 6.84019531 13.1796875 6.8046875 C16 7 16 7 18 9 C18 9.99 18 10.98 18 12 C18.99 12.495 18.99 12.495 20 13 C19.34 13 18.68 13 18 13 C17.67 14.65 17.34 16.3 17 18 C11.07353601 18.0987934 5.14755005 18.17143282 -0.77954102 18.21972656 C-2.79622749 18.23985609 -4.81285551 18.26716237 -6.8293457 18.30175781 C-9.72622082 18.35021722 -12.62232515 18.37295499 -15.51953125 18.390625 C-16.42274612 18.41127014 -17.325961 18.43191528 -18.25654602 18.45318604 C-24.52923544 18.45544041 -24.52923544 18.45544041 -27.0925293 15.97558594 C-27.39199463 15.32364258 -27.69145996 14.67169922 -28 14 C-28.99 15.65 -29.98 17.3 -31 19 C-2.62 19 25.76 19 55 19 C55.33 53.98 55.66 88.96 56 125 C57.32 123.68 58.64 122.36 60 121 C66.53678649 118.81777974 72.62679555 118.62556431 79.1875 120.6875 C81.3371308 121.27213937 81.3371308 121.27213937 84 119 C87.1875 118.875 87.1875 118.875 90 119 C90.33 119.66 90.66 120.32 91 121 C89.9275 121.0825 88.855 121.165 87.75 121.25 C83.48694922 122.10261016 82.9362646 123.03082071 80 126 C77.52636719 127.37207031 77.52636719 127.37207031 74.796875 128.578125 C73.8171875 129.01640625 72.8375 129.4546875 71.828125 129.90625 C70.81234375 130.3496875 69.7965625 130.793125 68.75 131.25 C67.71875 131.70890625 66.6875 132.1678125 65.625 132.640625 C63.08685703 133.76868854 60.54526205 134.88811568 58 136 C58.495 138.475 58.495 138.475 59 141 C66.69061922 138.66791528 73.77719335 135.41694378 80.97851562 131.87695312 C81.82736328 131.47798828 82.67621094 131.07902344 83.55078125 130.66796875 C84.31044189 130.29953857 85.07010254 129.9311084 85.8527832 129.55151367 C88 129 88 129 90.14990234 129.73608398 C92.88535497 131.60484068 94.49304225 134.16600417 96.3125 136.875 C101.32389706 144.1378237 106.61583433 151.16527703 111.99731445 158.15771484 C112.61695068 158.97320801 113.23658691 159.78870117 113.875 160.62890625 C114.42929687 161.35150635 114.98359375 162.07410645 115.5546875 162.81860352 C117.08651633 165.13057828 118.05956034 167.39752727 119 170 C121.475 169.01 121.475 169.01 124 168 C125.65 169.98 127.3 171.96 129 174 C127.51122091 177.80558699 125.47814104 179.31249377 122.125 181.5625 C116.98357163 185.14591977 112.49129587 189.08501471 108.06103516 193.49438477 C105.04365722 196.40322762 104.398222 197 100 197 C97.6875 194.75 97.6875 194.75 96 192 C96.375 189.9375 96.375 189.9375 97 188 C96.57540068 185.73403336 96.57540068 185.73403336 95 184 C93.00730264 183.62547582 91.00545207 183.29878607 89 183 C76.35625757 180.07161279 68.80845747 171.98886109 60 163 C58.02 161.02 58.02 161.02 56 159 C55.67 165.93 55.34 172.86 55 180 C16.06 180 -22.88 180 -63 180 C-63 179.67 -63 179.34 -63 179 C-24.39 179 14.22 179 54 179 C55.5204831 157.94718792 55.5204831 157.94718792 46 150 C43.22235701 148.97626855 43.22235701 148.97626855 40.5625 149.0625 C39.69753906 149.03285156 38.83257812 149.00320312 37.94140625 148.97265625 C37.30074219 148.98167969 36.66007812 148.99070313 36 149 C38.38957269 145.75700849 40.2047869 143.49097658 44 142 C43.87625 141.319375 43.7525 140.63875 43.625 139.9375 C44.18793915 135.52780998 46.87040064 133.022995 50 130 C50.99 129.34 51.98 128.68 53 128 C53.46120839 126.00208287 53.46120839 126.00208287 53.39872742 123.65939331 C53.41125644 122.74981306 53.42378546 121.84023281 53.43669415 120.90308952 C53.43526818 119.8985026 53.43384222 118.89391567 53.43237305 117.85888672 C53.44264684 116.7881296 53.45292063 115.71737247 53.46350574 114.61416817 C53.49347983 111.13595112 53.50294909 107.65801606 53.51171875 104.1796875 C53.52717512 102.0371806 53.54397021 99.89468292 53.56213379 97.75219727 C53.62017352 89.79323343 53.65224439 81.83409738 53.6875 73.875 C53.8421875 47.206875 53.8421875 47.206875 54 20 C15.39 20 -23.22 20 -63 20 C-63 19.67 -63 19.34 -63 19 C-52.77 19 -42.54 19 -32 19 C-31.67 17.35 -31.34 15.7 -31 14 C-29.68352881 13.30062468 -28.34977849 12.63270867 -27 12 C-26.26676204 9.98491642 -26.26676204 9.98491642 -26 8 C-25 7 -25 7 -22.27734375 6.90234375 C-20.62412109 6.91974609 -20.62412109 6.91974609 -18.9375 6.9375 C-17.28041016 6.95103516 -17.28041016 6.95103516 -15.58984375 6.96484375 C-14.73519531 6.97644531 -13.88054687 6.98804688 -13 7 C-12.731875 6.21625 -12.46375 5.4325 -12.1875 4.625 C-9.78519722 -0.68535352 -5.24615744 -0.87611885 0 0 Z " fill="#EBD7BE" transform="translate(243,40)"/>
<path d="M0 0 C4.55555556 0.55555556 4.55555556 0.55555556 6 2 C5.49226171 8.02032544 3.73815128 13.56796286 1.9375 19.3125 C1.38168384 21.09950619 0.82817912 22.88723348 0.27734375 24.67578125 C0.03234131 25.45864502 -0.21266113 26.24150879 -0.46508789 27.0480957 C-1.08810041 28.98416792 -1.08810041 28.98416792 -1 31 C-0.78384033 30.44650879 -0.56768066 29.89301758 -0.3449707 29.32275391 C6.66787252 11.42277426 6.66787252 11.42277426 9.6875 4.8125 C10.02136719 4.07644531 10.35523438 3.34039062 10.69921875 2.58203125 C12 1 12 1 14.51953125 0.13671875 C15.74736328 0.06904297 15.74736328 0.06904297 17 0 C17.66 0.66 18.32 1.32 19 2 C18.6081219 6.54347842 17.21350815 10.64236909 15.71484375 14.9296875 C15.49429825 15.56488312 15.27375275 16.20007874 15.04652405 16.85452271 C14.34802581 18.86295455 13.64288522 20.86897794 12.9375 22.875 C12.45984382 24.24463738 11.9826259 25.61442768 11.50585938 26.984375 C10.34230099 30.32469966 9.17277787 33.66289946 8 37 C8.34780518 36.26362305 8.69561035 35.52724609 9.05395508 34.76855469 C10.63550789 31.4268229 12.22392131 28.0883972 13.8125 24.75 C14.35970703 23.59113281 14.90691406 22.43226563 15.47070312 21.23828125 C16.00244141 20.12324219 16.53417969 19.00820312 17.08203125 17.859375 C17.56905518 16.83295898 18.0560791 15.80654297 18.55786133 14.74902344 C19.85676206 12.27304201 21.24891671 10.17125243 23 8 C24.65 8.33 26.3 8.66 28 9 C29.92564836 14.24984915 27.69188615 18.09123771 25.59765625 22.9140625 C25.24110458 23.76551849 24.88455292 24.61697449 24.51719666 25.49423218 C23.37790076 28.20985682 22.22125678 30.91762883 21.0625 33.625 C19.91004768 36.34055132 18.76137357 39.0575881 17.61851501 41.77719116 C16.90691769 43.46815064 16.18929197 45.15658829 15.46510315 46.8421936 C15.14154343 47.60663788 14.8179837 48.37108215 14.48461914 49.15869141 C14.19736465 49.82977936 13.91011017 50.50086731 13.614151 51.19229126 C12.83915897 53.15522615 12.83915897 53.15522615 13 56 C16.24161494 53.91610468 19.13836072 51.89824228 21.9375 49.25 C25.5997228 46.55938733 27.55871355 46.55587135 32 47 C32.78125 48.61328125 32.78125 48.61328125 33 51 C31.58027313 53.24689825 30.18587959 55.15868942 28.5 57.1875 C27.56894525 58.34630181 26.63795596 59.50515622 25.70703125 60.6640625 C25.24506348 61.2302832 24.7830957 61.79650391 24.30712891 62.37988281 C22.01304074 65.22328383 19.8535021 68.17050233 17.66796875 71.09765625 C12.86824278 76.57181678 7.24727981 78.75915501 0.61914062 81.26757812 C-2.79283783 82.65458704 -4.68647691 83.426442 -6.48828125 86.72265625 C-6.65714844 87.47417969 -6.82601562 88.22570312 -7 89 C-5.68 89.33 -4.36 89.66 -3 90 C-3.66 91.98 -4.32 93.96 -5 96 C-5.99 95.505 -5.99 95.505 -7 95 C-6.505 93.515 -6.505 93.515 -6 92 C-6.99 92.495 -6.99 92.495 -8 93 C-7.67 94.98 -7.34 96.96 -7 99 C-11.46727134 98.35083629 -15.25710703 96.63321566 -19.3125 94.75 C-27.34693627 91.11210214 -35.53595429 88.44241744 -44 86 C-43.43500935 82.2842957 -42.88972722 79.27552719 -41 76 C-39.02 76 -37.04 76 -35 76 C-34.89977539 75.4423999 -34.79955078 74.8847998 -34.69628906 74.31030273 C-34.22055033 71.68483981 -33.73527001 69.06121733 -33.25 66.4375 C-33.01410156 65.12362305 -33.01410156 65.12362305 -32.7734375 63.78320312 C-30.21432961 50.05260503 -26.16378421 37.06308131 -21.25390625 24.0246582 C-20.36020394 21.64815482 -19.48030455 19.26683627 -18.6015625 16.88476562 C-18.03465016 15.36428631 -17.46697159 13.84409241 -16.8984375 12.32421875 C-16.63694916 11.61601486 -16.37546082 10.90781097 -16.10604858 10.17814636 C-15.01030396 7.28745983 -14.21186015 5.21186015 -12 3 C-9.375 3.375 -9.375 3.375 -7 4 C-7.70156407 11.15595346 -9.30785021 18.01855181 -11 25 C-10.60675537 23.97060303 -10.60675537 23.97060303 -10.20556641 22.92041016 C-9.01754999 19.81979765 -7.82138605 16.72239212 -6.625 13.625 C-6.00625 12.00464844 -6.00625 12.00464844 -5.375 10.3515625 C-4.97539063 9.3203125 -4.57578125 8.2890625 -4.1640625 7.2265625 C-3.79748535 6.27346191 -3.4309082 5.32036133 -3.05322266 4.33837891 C-2 2 -2 2 0 0 Z " fill="#EDD6BB" transform="translate(129,123)"/>
<path d="M0 0 C14.81344461 3.20991195 29.03315739 7.98346198 42 16 C41.02280896 21.27683162 39.98377811 25.45946809 37 30 C36.30420546 32.19130534 36.30420546 32.19130534 36 34 C35.34 34 34.68 34 34 34 C33.608125 35.216875 33.21625 36.43375 32.8125 37.6875 C30.02788909 46.02813552 26.93398318 54.13203364 23 62 C7.16 62 -8.68 62 -25 62 C-24.32775301 58.63876507 -23.74406093 56.02980578 -22.546875 52.92578125 C-22.25997803 52.18118652 -21.97308105 51.4365918 -21.67749023 50.66943359 C-21.37141846 49.89164551 -21.06534668 49.11385742 -20.75 48.3125 C-20.43426025 47.50377441 -20.11852051 46.69504883 -19.79321289 45.86181641 C-17.85214147 40.95810892 -15.70030116 36.27267149 -13.2421875 31.60546875 C-11.31216444 27.55727574 -9.84482727 23.33883624 -8.3137207 19.12841797 C-5.90401062 12.57319629 -3.03755537 6.29054019 0 0 Z " fill="#031B29" transform="translate(82,208)"/>
<path d="M0 0 C2.96175123 0.61277612 4.38058783 1.25372522 7 3 C7.5878125 4.051875 7.5878125 4.051875 8.1875 5.125 C10.35802647 8.56790406 12.99027754 11.07215115 15.89453125 13.90234375 C18.45825903 16.45655863 20.81257744 19.14873865 23.171875 21.890625 C25.14432697 24.16653112 27.16235365 26.39588207 29.1875 28.625 C32.90440437 32.74923636 36.56292345 36.91970264 40.1875 41.125 C40.91779419 41.96732178 40.91779419 41.96732178 41.6628418 42.82666016 C44.2824921 45.87944607 46.77632069 48.99257015 49.1809082 52.21826172 C49.71166458 52.92925018 50.24242096 53.64023865 50.78926086 54.37277222 C51.38857674 55.17824997 51.38857674 55.17824997 52 56 C44.20274306 56.25591847 36.40648524 56.45083149 28.60607243 56.56993389 C24.98285233 56.62713027 21.36252279 56.70455294 17.7409668 56.82983398 C14.23936011 56.95019448 10.7405143 57.01528649 7.2369976 57.04364967 C5.26376415 57.07359491 3.29162941 57.15934704 1.32008362 57.2462616 C-4.06100401 57.24992445 -7.56779295 57.23210201 -11.75048828 53.63380432 C-14.03835206 50.85070635 -16.02684927 48.01120138 -18 45 C-19.23067179 43.50382225 -20.47928448 42.02190171 -21.7578125 40.56640625 C-22.31984375 39.89802734 -22.881875 39.22964844 -23.4609375 38.54101562 C-24.59999364 37.18671531 -25.74895931 35.84070497 -26.90625 34.50195312 C-27.72996094 33.51291992 -27.72996094 33.51291992 -28.5703125 32.50390625 C-29.06289551 31.92455322 -29.55547852 31.3452002 -30.06298828 30.74829102 C-31 29 -31 29 -30.65185547 26.78100586 C-30.43674316 26.19327393 -30.22163086 25.60554199 -30 25 C-29.34 25 -28.68 25 -28 25 C-27.72800781 24.40445313 -27.45601563 23.80890625 -27.17578125 23.1953125 C-23.90796493 17.09394117 -17.72615732 12.83923443 -12.375 8.625 C-11.82481201 8.18397949 -11.27462402 7.74295898 -10.70776367 7.28857422 C-7.52529235 4.83668679 -5.02331669 3.40382733 -1 3 C-0.67 2.01 -0.34 1.02 0 0 Z " fill="#031723" transform="translate(374,214)"/>
<path d="M0 0 C13.2 0 26.4 0 40 0 C39.34 1.98 38.68 3.96 38 6 C27.77 6 17.54 6 7 6 C7 59.13 7 112.26 7 167 C45.94 167 84.88 167 125 167 C125 159.74 125 152.48 125 145 C127.97 147.475 127.97 147.475 131 150 C131 157.59 131 165.18 131 173 C87.77 173 44.54 173 0 173 C0 115.91 0 58.82 0 0 Z " fill="#050505" transform="translate(173,53)"/>
<path d="M0 0 C2.5 1.8125 2.5 1.8125 4 4 C4 4.99 4 5.98 4 7 C4.84304687 6.97679687 5.68609375 6.95359375 6.5546875 6.9296875 C8.19824219 6.90261719 8.19824219 6.90261719 9.875 6.875 C11.51082031 6.84019531 11.51082031 6.84019531 13.1796875 6.8046875 C16 7 16 7 18 9 C18 9.99 18 10.98 18 12 C18.99 12.495 18.99 12.495 20 13 C19.34 13 18.68 13 18 13 C17.67 14.65 17.34 16.3 17 18 C11.07353601 18.0987934 5.14755005 18.17143282 -0.77954102 18.21972656 C-2.79622749 18.23985609 -4.81285551 18.26716237 -6.8293457 18.30175781 C-9.72622082 18.35021722 -12.62232515 18.37295499 -15.51953125 18.390625 C-16.42274612 18.41127014 -17.325961 18.43191528 -18.25654602 18.45318604 C-24.52923544 18.45544041 -24.52923544 18.45544041 -27.0925293 15.97558594 C-27.39199463 15.32364258 -27.69145996 14.67169922 -28 14 C-28.99 15.65 -29.98 17.3 -31 19 C-2.62 19 25.76 19 55 19 C55.33 53.98 55.66 88.96 56 125 C57.32 123.68 58.64 122.36 60 121 C66.53678649 118.81777974 72.62679555 118.62556431 79.1875 120.6875 C81.3371308 121.27213937 81.3371308 121.27213937 84 119 C87.1875 118.875 87.1875 118.875 90 119 C90.33 119.66 90.66 120.32 91 121 C89.9275 121.0825 88.855 121.165 87.75 121.25 C83.48694922 122.10261016 82.9362646 123.03082071 80 126 C77.52636719 127.37207031 77.52636719 127.37207031 74.796875 128.578125 C73.8171875 129.01640625 72.8375 129.4546875 71.828125 129.90625 C70.81234375 130.3496875 69.7965625 130.793125 68.75 131.25 C67.71875 131.70890625 66.6875 132.1678125 65.625 132.640625 C63.08685703 133.76868854 60.54526205 134.88811568 58 136 C58.495 138.475 58.495 138.475 59 141 C62.3 140.01 65.6 139.02 69 138 C71.94851556 140.34488245 72.93035506 141.42333987 73.390625 145.234375 C73.34421875 146.39453125 73.2978125 147.5546875 73.25 148.75 C73.21390625 149.92046875 73.1778125 151.0909375 73.140625 152.296875 C73.09421875 153.18890625 73.0478125 154.0809375 73 155 C66.27680858 153.18807607 60.35409414 150.54401843 55 146 C55 145.34 55 144.68 55 144 C53.82244141 144.54140625 53.82244141 144.54140625 52.62109375 145.09375 C42.18629174 149.7029877 42.18629174 149.7029877 36 149 C38.38957269 145.75700849 40.2047869 143.49097658 44 142 C43.87625 141.319375 43.7525 140.63875 43.625 139.9375 C44.18793915 135.52780998 46.87040064 133.022995 50 130 C50.99 129.34 51.98 128.68 53 128 C53.46120839 126.00208287 53.46120839 126.00208287 53.39872742 123.65939331 C53.41125644 122.74981306 53.42378546 121.84023281 53.43669415 120.90308952 C53.43526818 119.8985026 53.43384222 118.89391567 53.43237305 117.85888672 C53.44264684 116.7881296 53.45292063 115.71737247 53.46350574 114.61416817 C53.49347983 111.13595112 53.50294909 107.65801606 53.51171875 104.1796875 C53.52717512 102.0371806 53.54397021 99.89468292 53.56213379 97.75219727 C53.62017352 89.79323343 53.65224439 81.83409738 53.6875 73.875 C53.8421875 47.206875 53.8421875 47.206875 54 20 C15.39 20 -23.22 20 -63 20 C-63 19.67 -63 19.34 -63 19 C-52.77 19 -42.54 19 -32 19 C-31.67 17.35 -31.34 15.7 -31 14 C-29.68352881 13.30062468 -28.34977849 12.63270867 -27 12 C-26.26676204 9.98491642 -26.26676204 9.98491642 -26 8 C-25 7 -25 7 -22.27734375 6.90234375 C-20.62412109 6.91974609 -20.62412109 6.91974609 -18.9375 6.9375 C-17.28041016 6.95103516 -17.28041016 6.95103516 -15.58984375 6.96484375 C-14.73519531 6.97644531 -13.88054687 6.98804688 -13 7 C-12.731875 6.21625 -12.46375 5.4325 -12.1875 4.625 C-9.78519722 -0.68535352 -5.24615744 -0.87611885 0 0 Z " fill="#C6BAAE" transform="translate(243,40)"/>
<path d="M0 0 C12.87 0 25.74 0 39 0 C39.13549335 13.99507368 39.24559736 27.98971256 39.31087303 41.98529339 C39.34220035 48.48385145 39.38470078 54.98193796 39.45263672 61.48022461 C39.51777622 67.75018263 39.55369548 74.0196868 39.56926346 80.28995705 C39.58035929 82.68344075 39.60202685 85.0768993 39.63438034 87.47019005 C39.67786942 90.82011172 39.68393693 94.16815251 39.68115234 97.51831055 C39.702724 98.51021393 39.72429565 99.50211731 39.746521 100.52407837 C39.73414902 101.89748131 39.73414902 101.89748131 39.7215271 103.29862976 C39.72705786 104.09044993 39.73258862 104.88227011 39.73828697 105.69808483 C39 108 39 108 33 113 C33 77.69 33 42.38 33 6 C22.77 6 12.54 6 2 6 C1.34 4.02 0.68 2.04 0 0 Z " fill="#010101" transform="translate(265,53)"/>
<path d="M0 0 C2.5 1.8125 2.5 1.8125 4 4 C4 4.99 4 5.98 4 7 C4.84304687 6.97679687 5.68609375 6.95359375 6.5546875 6.9296875 C8.19824219 6.90261719 8.19824219 6.90261719 9.875 6.875 C11.51082031 6.84019531 11.51082031 6.84019531 13.1796875 6.8046875 C16 7 16 7 18 9 C18 9.99 18 10.98 18 12 C18.66 12.33 19.32 12.66 20 13 C19.34 13 18.68 13 18 13 C17.67 14.65 17.34 16.3 17 18 C11.03686834 18.02464574 5.07376605 18.042834 -0.8894043 18.05493164 C-2.91968298 18.05997278 -4.94995802 18.06680557 -6.98022461 18.07543945 C-9.89177347 18.08751467 -12.8032745 18.09323034 -15.71484375 18.09765625 C-17.08514992 18.10539818 -17.08514992 18.10539818 -18.48313904 18.11329651 C-20.65575427 18.11349168 -22.82827296 18.06211805 -25 18 C-26 17 -26 17 -26.1328125 14.96875 C-26.13023437 14.1540625 -26.12765625 13.339375 -26.125 12.5 C-26.12757813 11.6853125 -26.13015625 10.870625 -26.1328125 10.03125 C-26 8 -26 8 -25 7 C-22.98035801 6.92755947 -20.95832876 6.91622812 -18.9375 6.9375 C-17.28041016 6.95103516 -17.28041016 6.95103516 -15.58984375 6.96484375 C-14.73519531 6.97644531 -13.88054687 6.98804688 -13 7 C-12.731875 6.21625 -12.46375 5.4325 -12.1875 4.625 C-9.78519722 -0.68535352 -5.24615744 -0.87611885 0 0 Z " fill="#E3E3E3" transform="translate(243,40)"/>
<path d="M0 0 C7.85963846 0.39298192 13.86347022 2.81436701 21 6 C23.14410125 6.87923576 25.28989783 7.75435047 27.4375 8.625 C31.18368181 10.14386011 34.5748621 11.84918745 38 14 C37.34 15.98 36.68 17.96 36 20 C35.34 19.67 34.68 19.34 34 19 C34.495 17.515 34.495 17.515 35 16 C34.01 16.495 34.01 16.495 33 17 C33.495 19.97 33.495 19.97 34 23 C29.53272866 22.35083629 25.74289297 20.63321566 21.6875 18.75 C13.65306373 15.11210214 5.46404571 12.44241744 -3 10 C-2.49287967 6.28111761 -1.88391785 3.26545761 0 0 Z " fill="#DDDEDF" transform="translate(88,199)"/>
<path d="M0 0 C5.57894737 3.15789474 5.57894737 3.15789474 7 6 C7.55512815 10.63213493 7.6364242 13.98172127 5.125 18 C1.85246659 21.08003145 -0.46120307 21.33815051 -4.9609375 21.2890625 C-8.16544562 20.83478357 -9.82724211 19.30444019 -12 17 C-13.2535226 13.23943219 -13.89111194 9.87852818 -13 6 C-9.68209092 1.44506701 -5.72124629 -1.21728645 0 0 Z " fill="#070707" transform="translate(209,184)"/>
<path d="M0 0 C0 0.66 0 1.32 0 2 C0.66 2 1.32 2 2 2 C2 2.66 2 3.32 2 4 C2.99 4.33 3.98 4.66 5 5 C1.02922282 7.50896053 -3.09547715 9.49517421 -7.3828125 11.390625 C-8.07889618 11.69949646 -8.77497986 12.00836792 -9.49215698 12.32659912 C-10.95536662 12.97384523 -12.41942336 13.61917937 -13.88427734 14.26269531 C-16.12894219 15.25173701 -18.36710993 16.25459626 -20.60546875 17.2578125 C-22.03087084 17.88627733 -23.45663976 18.51391096 -24.8828125 19.140625 C-25.55160431 19.44260803 -26.22039612 19.74459106 -26.90945435 20.0557251 C-31.65722404 22.11425865 -31.65722404 22.11425865 -35 21 C-35.33 19.35 -35.66 17.7 -36 16 C-19.29157175 7.55353075 -19.29157175 7.55353075 -11 4 C-11 3.34 -11 2.68 -11 2 C-9.5422647 1.664061 -8.08378894 1.33133376 -6.625 1 C-5.81289063 0.814375 -5.00078125 0.62875 -4.1640625 0.4375 C-2 0 -2 0 0 0 Z " fill="#171713" transform="translate(336,160)"/>
<path d="M0 0 C26.73 0 53.46 0 81 0 C81 0.99 81 1.98 81 3 C54.27 3 27.54 3 0 3 C0 2.01 0 1.02 0 0 Z " fill="#D4D4D4" transform="translate(192,117)"/>
<path d="M0 0 C4.77665094 2.38832547 7.71551115 5.15688363 10 10 C10.2947051 15.21259654 9.36801455 19.91026804 6 24 C2.30589426 27.15085489 -1.08750833 27.52352299 -5.78515625 27.3515625 C-10.30303401 26.63443905 -12.98626724 24.18268822 -15.875 20.8125 C-17.48047982 16.79880044 -17.67667379 13.26304489 -17 9 C-13.35362092 1.70724184 -8.19798498 -1.43343942 0 0 Z M-12.640625 7.15234375 C-14.19720531 9.26804055 -14.52611085 10.456771 -14.625 13.0625 C-14.01340956 16.91551975 -13.40222229 18.97497934 -11 22 C-7.31502204 24.45665197 -4.28028214 24.70086491 0 24 C2.8100346 22.20636089 4.50940468 20.98119065 6 18 C6.42071592 14.94079426 6.48514117 12.0532254 6 9 C3.1292693 5.37381386 0.89202846 3.30800463 -3.6875 2.5625 C-7.76208051 3.10065214 -9.67816092 4.37994926 -12.640625 7.15234375 Z " fill="#767676" transform="translate(210,181)"/>
<path d="M0 0 C10.83984375 -0.09765625 10.83984375 -0.09765625 14 0 C15 1 15 1 15.09765625 4.16015625 C15.04882812 9.58007812 15.04882812 9.58007812 15 15 C10.05 15 5.1 15 0 15 C0 10.05 0 5.1 0 0 Z " fill="#CDCDCD" transform="translate(192,131)"/>
<path d="M0 0 C23.76 0 47.52 0 72 0 C72 0.99 72 1.98 72 3 C48.24 3 24.48 3 0 3 C0 2.01 0 1.02 0 0 Z " fill="#D6D6D6" transform="translate(212,131)"/>
<path d="M0 0 C2.55234718 2.45225513 4.31418658 4.86920364 6 8 C6 8.66 6 9.32 6 10 C9.68754757 9.50168276 11.60490662 8.89932357 14 6 C16 7 16 7 18 9 C18.36933645 11.75372909 18.18336678 14.20365661 18 17 C11.90178994 16.23772374 5.53658767 13.1585387 1 9 C1 8.34 1 7.68 1 7 C-0.17755859 7.54140625 -0.17755859 7.54140625 -1.37890625 8.09375 C-11.81370826 12.7029877 -11.81370826 12.7029877 -18 12 C-14.84768993 7.39094057 -11.67141866 5.4531531 -6.75 3.1875 C-5.77546875 2.72053711 -5.77546875 2.72053711 -4.78125 2.24414062 C-3.19278029 1.48494554 -1.59708737 0.74089481 0 0 Z " fill="#170F0B" transform="translate(297,177)"/>
<path d="M0 0 C2.08121374 1.5955972 3.42476052 3.26214077 4.875 5.4375 C2.61248318 11.23111245 -2.86407687 14.52520326 -8.125 17.4375 C-11.02120449 17.80944407 -12.32985713 17.43132858 -15.125 16.4375 C-15.785 14.7875 -16.445 13.1375 -17.125 11.4375 C-15.83872289 10.26489389 -14.54580217 9.0995717 -13.25 7.9375 C-12.53070313 7.2878125 -11.81140625 6.638125 -11.0703125 5.96875 C-9.125 4.4375 -9.125 4.4375 -7.125 4.4375 C-7.125 3.7775 -7.125 3.1175 -7.125 2.4375 C-2.97766458 -0.78820533 -2.97766458 -0.78820533 0 0 Z " fill="#E3E6E7" transform="translate(367.125,208.5625)"/>
<path d="M0 0 C4.62 0 9.24 0 14 0 C14 4.62 14 9.24 14 14 C9.38 14 4.76 14 0 14 C0 9.38 0 4.76 0 0 Z " fill="#CBCBCB" transform="translate(192,151)"/>
<path d="M0 0 C3.25779155 0.75179805 4.43106357 1.91113757 6.4375 4.5625 C6.7675 6.2125 7.0975 7.8625 7.4375 9.5625 C12.3875 8.0775 12.3875 8.0775 17.4375 6.5625 C20.38601556 8.90738245 21.36785506 9.98583987 21.828125 13.796875 C21.75851562 15.53710938 21.75851562 15.53710938 21.6875 17.3125 C21.65140625 18.48296875 21.6153125 19.6534375 21.578125 20.859375 C21.50851562 22.19742188 21.50851562 22.19742188 21.4375 23.5625 C20.7775 23.2325 20.1175 22.9025 19.4375 22.5625 C19.7675 19.9225 20.0975 17.2825 20.4375 14.5625 C18.7875 13.9025 17.1375 13.2425 15.4375 12.5625 C14.4475 14.0475 14.4475 14.0475 13.4375 15.5625 C11.7875 15.5625 10.1375 15.5625 8.4375 15.5625 C6.7875 12.5925 5.1375 9.6225 3.4375 6.5625 C0.1375 7.8825 -3.1625 9.2025 -6.5625 10.5625 C-6.8925 8.9125 -7.2225 7.2625 -7.5625 5.5625 C-5.2721375 2.53113787 -3.76355394 0.82614599 0 0 Z " fill="#C6AA90" transform="translate(294.5625,171.4375)"/>
<path d="M0 0 C0.69609375 0.39445313 1.3921875 0.78890625 2.109375 1.1953125 C2.81578125 1.58460938 3.5221875 1.97390625 4.25 2.375 C4.78109375 2.68695313 5.3121875 2.99890625 5.859375 3.3203125 C1.859375 7.3203125 -2.140625 11.3203125 -6.140625 15.3203125 C-9.46698382 13.79458594 -11.09625502 12.38686746 -13.140625 9.3203125 C-11.37337282 4.82185241 -8.1973509 2.65760753 -4.2421875 0.0859375 C-2.140625 -0.6796875 -2.140625 -0.6796875 0 0 Z " fill="#DBDADA" transform="translate(352.140625,222.6796875)"/>
<path d="M0 0 C-0.56640625 2.78515625 -0.56640625 2.78515625 -2 6 C-4.40696397 7.47639054 -6.34783674 8.46081204 -8.9375 9.4375 C-9.88786133 9.8387207 -9.88786133 9.8387207 -10.85742188 10.24804688 C-15.56642857 12.14452381 -15.56642857 12.14452381 -19 11 C-19.33 9.35 -19.66 7.7 -20 6 C-17.80087504 4.79198752 -15.59338181 3.60918053 -13.375 2.4375 C-12.75753906 2.09525391 -12.14007813 1.75300781 -11.50390625 1.40039062 C-7.2438032 -0.81934728 -4.63091792 -1.30378151 0 0 Z " fill="#181211" transform="translate(320,170)"/>
<path d="M0 0 C1.65 0.33 3.3 0.66 5 1 C6.07010304 3.76443285 6.16283213 5.53851367 5.17578125 8.3359375 C4.16488321 10.58474227 3.11596524 12.80159637 2 15 C-0.31 14.34 -2.62 13.68 -5 13 C-4.54996653 7.37458159 -3.31558515 4.38512875 0 0 Z " fill="#E9D8C3" transform="translate(142,123)"/>
<path d="M0 0 C0.29946533 0.65194336 0.59893066 1.30388672 0.9074707 1.97558594 C3.79488273 4.769008 5.83859916 4.45458942 9.74345398 4.45318604 C10.64666885 4.43254089 11.54988373 4.41189575 12.48046875 4.390625 C13.40845779 4.38496521 14.33644684 4.37930542 15.29255676 4.37347412 C18.25806146 4.35107376 21.2223602 4.30087073 24.1875 4.25 C26.19724818 4.22993973 28.20701529 4.21168813 30.21679688 4.1953125 C35.14499629 4.15119696 40.07229365 4.08214424 45 4 C45.33 2.68 45.66 1.36 46 0 C48.4375 0.75 48.4375 0.75 51 2 C51.495 3.98 51.495 3.98 52 6 C33.85 6 15.7 6 -3 6 C-2 2 -2 2 0 0 Z " fill="#363636" transform="translate(215,53)"/>
<path d="M0 0 C0.66 0.33 1.32 0.66 2 1 C2.625 4.0625 2.625 4.0625 3 7 C3.66 6.34 4.32 5.68 5 5 C5.99 5 6.98 5 8 5 C8.33 5.99 8.66 6.98 9 8 C10.32 8 11.64 8 13 8 C13.66 8 14.32 8 15 8 C15 8.66 15 9.32 15 10 C15.53625 9.67 16.0725 9.34 16.625 9 C19.5391061 7.77300796 21.86867708 7.85766714 25 8 C25 8.33 25 8.66 25 9 C24.37351562 9.20496094 23.74703125 9.40992188 23.1015625 9.62109375 C22.28429687 9.89050781 21.46703125 10.15992188 20.625 10.4375 C19.81289063 10.70433594 19.00078125 10.97117188 18.1640625 11.24609375 C15.98968201 11.95179729 15.98968201 11.95179729 14 13 C14 12.34 14 11.68 14 11 C12.68 11.33 11.36 11.66 10 12 C10 11.34 10 10.68 10 10 C8.576875 10.2784375 8.576875 10.2784375 7.125 10.5625 C4 11 4 11 2 10 C1.01 11.32 0.02 12.64 -1 14 C-1 12.68 -1 11.36 -1 10 C-3.31 10.33 -5.62 10.66 -8 11 C-6.875 9.5 -6.875 9.5 -5 8 C-1.8125 7.8125 -1.8125 7.8125 1 8 C0.67 5.36 0.34 2.72 0 0 Z " fill="#7A7A7A" transform="translate(251,181)"/>
<path d="M0 0 C0.99 0.33 1.98 0.66 3 1 C3 4.3 3 7.6 3 11 C-0.3 11 -3.6 11 -7 11 C-7.66 8.69 -8.32 6.38 -9 4 C-8.443125 4.268125 -7.88625 4.53625 -7.3125 4.8125 C-6.1678125 4.9053125 -6.1678125 4.9053125 -5 5 C-2.22877725 2.64573501 -2.22877725 2.64573501 0 0 Z " fill="#AAAAAA" transform="translate(203,154)"/>
<path d="M0 0 C6.53281666 0.49616329 11.71478848 2.24455562 17.6875 4.875 C18.51572266 5.22691406 19.34394531 5.57882813 20.19726562 5.94140625 C24.31449011 7.71487845 28.22587422 9.55565784 32 12 C31.34 13.98 30.68 15.96 30 18 C29.34 17.67 28.68 17.34 28 17 C28.33 16.01 28.66 15.02 29 14 C28.01 14 27.02 14 26 14 C26 13.34 26 12.68 26 12 C22.04 10.02 18.08 8.04 14 6 C13.67 6.66 13.34 7.32 13 8 C12.34 7.67 11.68 7.34 11 7 C11 6.01 11 5.02 11 4 C8.03 3.67 5.06 3.34 2 3 C2 2.34 2 1.68 2 1 C1.34 0.67 0.68 0.34 0 0 Z " fill="#EEE8E4" transform="translate(94,201)"/>
<path d="M0 0 C2.5 1 2.5 1 5 3 C5.46837899 5.79374292 5.23424505 8.14221036 5 11 C0.24190251 10.40523781 -3.94710294 8.5093872 -8 6 C-8.33 5.34 -8.66 4.68 -9 4 C-8.34 3.34 -7.68 2.68 -7 2 C-7 2.66 -7 3.32 -7 4 C-4.56282742 3.72965366 -4.56282742 3.72965366 -2 3 C-1.34 2.01 -0.68 1.02 0 0 Z " fill="#423A31" transform="translate(310,183)"/>
<path d="M0 0 C3.13695412 0.72391249 4.39200468 2.13820925 6.4375 4.5625 C5.7775 5.8825 5.1175 7.2025 4.4375 8.5625 C3.7775 7.9025 3.1175 7.2425 2.4375 6.5625 C-0.5325 7.8825 -3.5025 9.2025 -6.5625 10.5625 C-7.375 8.375 -7.375 8.375 -7.5625 5.5625 C-5.2721375 2.53113787 -3.76355394 0.82614599 0 0 Z " fill="#E0C4A2" transform="translate(294.5625,171.4375)"/>
<path d="M0 0 C0.33 0.66 0.66 1.32 1 2 C1.99 2 2.98 2 4 2 C2.26056074 7.88049069 -0.36956383 13.29234182 -3 18.8125 C-3.45117188 19.77865234 -3.90234375 20.74480469 -4.3671875 21.74023438 C-4.80289063 22.65740234 -5.23859375 23.57457031 -5.6875 24.51953125 C-6.08324219 25.35589111 -6.47898438 26.19225098 -6.88671875 27.05395508 C-8 29 -8 29 -10 30 C-7.98086853 23.0449018 -5.73400143 16.19969087 -3.3125 9.375 C-2.83200195 8.01181641 -2.83200195 8.01181641 -2.34179688 6.62109375 C-1.56326686 4.41332207 -0.78264756 2.20631463 0 0 Z " fill="#453F39" transform="translate(146,131)"/>
<path d="M0 0 C2 1 2 1 2.859375 3.47265625 C3.05752447 8.44290538 1.28849601 11.97305412 -0.75 16.4375 C-1.29140625 17.66823242 -1.29140625 17.66823242 -1.84375 18.92382812 C-2.55185632 20.53117817 -3.26587409 22.13593944 -3.98632812 23.73779297 C-5.36262253 26.8092631 -6.68275704 29.90281164 -8 33 C-9.10020353 29.6993894 -8.94451356 29.08915588 -7.890625 25.9375 C-7.63168457 25.14512939 -7.37274414 24.35275879 -7.10595703 23.53637695 C-6.82349121 22.69937256 -6.54102539 21.86236816 -6.25 21 C-5.68846919 19.28569093 -5.12856529 17.57084808 -4.5703125 15.85546875 C-4.29864258 15.02450684 -4.02697266 14.19354492 -3.74707031 13.33740234 C-2.33996552 8.93491174 -1.14673738 4.47629943 0 0 Z " fill="#574F41" transform="translate(135,125)"/>
<path d="M0 0 C2.625 0.375 2.625 0.375 5 1 C4.52060632 5.71403788 4.03165952 9.66579301 2 14 C0 11 0 11 0 9 C-0.99 9 -1.98 9 -3 9 C-2.25 2.25 -2.25 2.25 0 0 Z " fill="#F0DECB" transform="translate(117,126)"/>
<path d="M0 0 C2.625 0.375 2.625 0.375 5 1 C6.15837626 5.05431692 5.83691257 7.21812119 4 11 C3.34 11 2.68 11 2 11 C1.34 9.68 0.68 8.36 0 7 C-1.32 7.33 -2.64 7.66 -4 8 C-2.25 2.25 -2.25 2.25 0 0 Z " fill="#E8DAC8" transform="translate(152,131)"/>
<path d="M0 0 C0.1875 2.875 0.1875 2.875 0 6 C-3 8 -3 8 -5.6875 7.625 C-6.450625 7.41875 -7.21375 7.2125 -8 7 C-8.33 5.35 -8.66 3.7 -9 2 C-5.86501708 0.14223235 -3.62528568 -0.20140476 0 0 Z " fill="#CFCFCF" transform="translate(250,191)"/>
<path d="M0 0 C0 0.66 0 1.32 0 2 C0.66 2 1.32 2 2 2 C2.33 2.99 2.66 3.98 3 5 C-0.50776784 6.60355101 -3.14354879 7.22036864 -7 7 C-7 6.01 -7 5.02 -7 4 C-7.66 3.67 -8.32 3.34 -9 3 C-9 3.66 -9 4.32 -9 5 C-9.66 4.67 -10.32 4.34 -11 4 C-11 3.34 -11 2.68 -11 2 C-9.5422647 1.664061 -8.08378894 1.33133376 -6.625 1 C-5.40683594 0.7215625 -5.40683594 0.7215625 -4.1640625 0.4375 C-2 0 -2 0 0 0 Z " fill="#29281D" transform="translate(336,160)"/>
<path d="M0 0 C0 1.66666667 0 3.33333333 0 5 C0.99 5 1.98 5 3 5 C3 6.65 3 8.3 3 10 C0.36 10 -2.28 10 -5 10 C-4.67 9.01 -4.34 8.02 -4 7 C-4.639375 6.87625 -5.27875 6.7525 -5.9375 6.625 C-6.618125 6.41875 -7.29875 6.2125 -8 6 C-8.33 5.34 -8.66 4.68 -9 4 C-8.443125 4.268125 -7.88625 4.53625 -7.3125 4.8125 C-6.1678125 4.9053125 -6.1678125 4.9053125 -5 5 C-2.22877725 2.64573501 -2.22877725 2.64573501 0 0 Z " fill="#9B9B9B" transform="translate(203,135)"/>
<path d="M0 0 C0.33 0 0.66 0 1 0 C1.7984047 3.7016945 2.32128519 6.16843834 0.9375 9.75 C-2.17410547 13.36347733 -5.31548534 14.75434161 -10 15.4375 C-13.79462159 14.88411768 -15.98105723 13.30014687 -19 11 C-18.67 10.34 -18.34 9.68 -18 9 C-17.505 9.495 -17.01 9.99 -16.5 10.5 C-13.03813949 12.57711631 -9.88194353 12.80873824 -6 12 C-2.1704955 9.31119897 -1.16620928 7.77990511 -0.1875 3.1875 C-0.125625 2.135625 -0.06375 1.08375 0 0 Z " fill="#E0E0E0" transform="translate(216,192)"/>
<path d="M0 0 C0.33 0.66 0.66 1.32 1 2 C-0.60875 2.12375 -0.60875 2.12375 -2.25 2.25 C-6.04005435 2.63942466 -6.04005435 2.63942466 -8.0625 5.125 C-8.701875 5.74375 -9.34125 6.3625 -10 7 C-13.25 6.75 -13.25 6.75 -16 6 C-15.67 4.68 -15.34 3.36 -15 2 C-13.6078125 2.061875 -13.6078125 2.061875 -12.1875 2.125 C-7.59645111 1.94495887 -4.92060387 -0.21869351 0 0 Z " fill="#D8CAA4" transform="translate(333,159)"/>
<path d="M0 0 C0 1.32 0 2.64 0 4 C0.66 3.01 1.32 2.02 2 1 C2.66 1 3.32 1 4 1 C4.33 2.65 4.66 4.3 5 6 C2.36 6.99 -0.28 7.98 -3 9 C-3 8.34 -3 7.68 -3 7 C-3.66 6.67 -4.32 6.34 -5 6 C-4.34 5.67 -3.68 5.34 -3 5 C-3.99 4.01 -4.98 3.02 -6 2 C-2.25 0 -2.25 0 0 0 Z " fill="#231F16" transform="translate(322,166)"/>
<path d="M0 0 C0.804375 0.433125 0.804375 0.433125 1.625 0.875 C4.35280484 2.16711808 7.12612718 3.08558592 10 4 C8.68 5.65 7.36 7.3 6 9 C2.66476748 7.61990379 0.81392049 6.15049348 -1 3 C-0.67 2.01 -0.34 1.02 0 0 Z " fill="#CBCFD1" transform="translate(340,229)"/>
<path d="M0 0 C1.67542976 0.28604898 3.34385343 0.61781233 5 1 C5 2.65 5 4.3 5 6 C2.625 6.625 2.625 6.625 0 7 C-0.66 6.34 -1.32 5.68 -2 5 C-1.46428571 1.46428571 -1.46428571 1.46428571 0 0 Z " fill="#3C3C3C" transform="translate(237,45)"/>
<path d="M0 0 C0.33 0.66 0.66 1.32 1 2 C1.66 2.33 2.32 2.66 3 3 C0.69 8.94 -1.62 14.88 -4 21 C-5.09178911 17.72463268 -4.93042848 16.95586381 -4.00390625 13.76953125 C-3.77509766 12.96708984 -3.54628906 12.16464844 -3.31054688 11.33789062 C-2.94026367 10.08782227 -2.94026367 10.08782227 -2.5625 8.8125 C-2.31951172 7.96751953 -2.07652344 7.12253906 -1.82617188 6.25195312 C-1.22506507 4.1657589 -0.61352166 2.08257699 0 0 Z " fill="#5D4F42" transform="translate(121,132)"/>
<path d="M0 0 C0.66 0 1.32 0 2 0 C0.2298836 4.76569801 -2.18776332 8.78164499 -5 13 C-5.99 13 -6.98 13 -8 13 C-7.38821244 9.34603593 -5.8335544 7.13957441 -3.5625 4.25 C-2.94503906 3.45078125 -2.32757813 2.6515625 -1.69140625 1.828125 C-1.13324219 1.22484375 -0.57507813 0.6215625 0 0 Z " fill="#3B342C" transform="translate(151,187)"/>
<path d="M0 0 C0.33 0.66 0.66 1.32 1 2 C1.66 2.33 2.32 2.66 3 3 C0.36 8.28 -2.28 13.56 -5 19 C-6 17 -6 17 -5.56274414 15.21240234 C-5.30614014 14.51066895 -5.04953613 13.80893555 -4.78515625 13.0859375 C-4.37426758 11.94511719 -4.37426758 11.94511719 -3.95507812 10.78125 C-3.66052734 9.9871875 -3.36597656 9.193125 -3.0625 8.375 C-2.77181641 7.57320312 -2.48113281 6.77140625 -2.18164062 5.9453125 C-1.46117475 3.96107862 -0.73144862 1.98021163 0 0 Z " fill="#66584C" transform="translate(142,142)"/>
<path d="M0 0 C0.66 0.66 1.32 1.32 2 2 C4.57061311 2.64767793 4.57061311 2.64767793 7 3 C4.14693203 5.32472205 1.45925163 6.7508258 -2 8 C-2.6875 5.6875 -2.6875 5.6875 -3 3 C-1.5625 1.1875 -1.5625 1.1875 0 0 Z " fill="#C8AB93" transform="translate(290,174)"/>
<path d="M0 0 C4 0 4 0 7 1 C4.19195732 3.96404505 1.81684226 6.44499019 -2 8 C-1.34 5.36 -0.68 2.72 0 0 Z " fill="#484238" transform="translate(142,173)"/>
<path d="M0 0 C1.32 0 2.64 0 4 0 C4 0.66 4 1.32 4 2 C4.66 2 5.32 2 6 2 C6.33 3.32 6.66 4.64 7 6 C3.17902761 5.46930939 0.93828597 4.50298434 -2 2 C-1.34 1.34 -0.68 0.68 0 0 Z " fill="#CDCFD2" transform="translate(115,216)"/>
<path d="M0 0 C2 0 4 0 6 0 C6 0.66 6 1.32 6 2 C6.53625 1.67 7.0725 1.34 7.625 1 C10.5391061 -0.22699204 12.86867708 -0.14233286 16 0 C16 0.33 16 0.66 16 1 C15.06027344 1.30744141 15.06027344 1.30744141 14.1015625 1.62109375 C13.28429687 1.89050781 12.46703125 2.15992188 11.625 2.4375 C10.81289063 2.70433594 10.00078125 2.97117188 9.1640625 3.24609375 C6.98968201 3.95179729 6.98968201 3.95179729 5 5 C5 4.34 5 3.68 5 3 C3.68 3.33 2.36 3.66 1 4 C1 3.34 1 2.68 1 2 C0.34 1.67 -0.32 1.34 -1 1 C-0.67 0.67 -0.34 0.34 0 0 Z " fill="#747473" transform="translate(260,189)"/>
<path d="M0 0 C0.66 0.33 1.32 0.66 2 1 C0.92173635 2.27513763 -0.16285519 3.54492569 -1.25 4.8125 C-1.85328125 5.52019531 -2.4565625 6.22789062 -3.078125 6.95703125 C-4.92370398 8.91889671 -6.79945332 10.45669625 -9 12 C-9 8 -9 8 -7.5390625 6.296875 C-6.90742188 5.78640625 -6.27578125 5.2759375 -5.625 4.75 C-4.99851562 4.22921875 -4.37203125 3.7084375 -3.7265625 3.171875 C-2 2 -2 2 0 2 C0 1.34 0 0.68 0 0 Z " fill="#ECE5DC" transform="translate(360,211)"/>
<path d="M0 0 C2.4375 0.75 2.4375 0.75 5 2 C5.8125 4.125 5.8125 4.125 6 6 C3.36 6 0.72 6 -2 6 C-1.34 4.02 -0.68 2.04 0 0 Z " fill="#191919" transform="translate(261,53)"/>
<path d="M0 0 C0.79921875 0.11085937 1.5984375 0.22171875 2.421875 0.3359375 C3.32679687 0.47902344 3.32679687 0.47902344 4.25 0.625 C4.25 1.285 4.25 1.945 4.25 2.625 C-0.59492197 4.13903812 -4.0091011 2.99102172 -8.75 1.625 C-5.5750906 -0.2828584 -3.64414789 -0.5359041 0 0 Z " fill="#C4CBCE" transform="translate(96.75,208.375)"/>
<path d="M0 0 C0.33 0.99 0.66 1.98 1 3 C0.34 3 -0.32 3 -1 3 C-1 3.66 -1 4.32 -1 5 C-4.375 5.125 -4.375 5.125 -8 5 C-8.66 4.34 -9.32 3.68 -10 3 C-8.70990357 2.49596232 -7.41786211 1.99690074 -6.125 1.5 C-5.04605469 1.08234375 -5.04605469 1.08234375 -3.9453125 0.65625 C-2 0 -2 0 0 0 Z " fill="#CFB59B" transform="translate(298,184)"/>
<path d="M0 0 C0 2 0 2 -1.375 3.5 C-1.91125 3.995 -2.4475 4.49 -3 5 C-3.66 5.66 -4.32 6.32 -5 7 C-6.32 6.01 -7.64 5.02 -9 4 C-7 1 -7 1 -5.0625 0.3125 C-3 0 -3 0 0 0 Z " fill="#DABA9C" transform="translate(126,204)"/>
<path d="M0 0 C3 1.75 3 1.75 6 4 C6 5.32 6 6.64 6 8 C3.64035727 7.59316505 2.14065912 7.10185661 0.1875 5.6875 C-1 4 -1 4 -0.6875 1.8125 C-0.460625 1.214375 -0.23375 0.61625 0 0 Z " fill="#0E0B08" transform="translate(296,179)"/>
<path d="M0 0 C1.65 0 3.3 0 5 0 C5 0.66 5 1.32 5 2 C6.32 2.33 7.64 2.66 9 3 C6.6875 4.5625 6.6875 4.5625 4 6 C3.01 5.67 2.02 5.34 1 5 C0.67 3.35 0.34 1.7 0 0 Z " fill="#130E08" transform="translate(300,176)"/>
<path d="M0 0 C0.66 0.99 1.32 1.98 2 3 C1.67 3.99 1.34 4.98 1 6 C-1.31 6 -3.62 6 -6 6 C-2.25 1.125 -2.25 1.125 0 0 Z " fill="#2C2C2D" transform="translate(285,183)"/>
<path d="M0 0 C0.33 0.99 0.66 1.98 1 3 C1.66 3.33 2.32 3.66 3 4 C1.68 6.64 0.36 9.28 -1 12 C-2.24142712 7.03429151 -1.37261666 4.84452938 0 0 Z " fill="#453E34" transform="translate(133,132)"/>
<path d="M0 0 C1.65 0.33 3.3 0.66 5 1 C5 2.65 5 4.3 5 6 C4.01 6 3.02 6 2 6 C1.67 5.01 1.34 4.02 1 3 C0.01 3.33 -0.98 3.66 -2 4 C-1.34 2.68 -0.68 1.36 0 0 Z " fill="#DCD1BD" transform="translate(117,126)"/>
<path d="M0 0 C1.2065625 0.0309375 1.2065625 0.0309375 2.4375 0.0625 C2.125 1.9375 2.125 1.9375 1.4375 4.0625 C0.4475 4.7225 -0.5425 5.3825 -1.5625 6.0625 C-2.2225 4.4125 -2.8825 2.7625 -3.5625 1.0625 C-2.5625 0.0625 -2.5625 0.0625 0 0 Z " fill="#F1E3D2" transform="translate(159.5625,170.9375)"/>
<path d="M0 0 C4 4.875 4 4.875 4 6 C1.69 6 -0.62 6 -3 6 C-2.42655063 3.13275314 -2.1385485 2.1385485 0 0 Z " fill="#0A0A0A" transform="translate(215,53)"/>
<path d="M0 0 C0.99 0 1.98 0 3 0 C3 1.98 3 3.96 3 6 C1.68 6 0.36 6 -1 6 C-1.625 4.125 -1.625 4.125 -2 2 C-1.34 1.34 -0.68 0.68 0 0 Z " fill="#909090" transform="translate(256,186)"/>
<path d="M0 0 C2.475 0.495 2.475 0.495 5 1 C5 2.65 5 4.3 5 6 C4.01 6 3.02 6 2 6 C1.34 4.02 0.68 2.04 0 0 Z " fill="#E9DCCA" transform="translate(130,124)"/>
<path d="M0 0 C1.9375 0.75 1.9375 0.75 4 2 C4.75 4.125 4.75 4.125 5 6 C4.01 6.33 3.02 6.66 2 7 C0.4375 5.1875 0.4375 5.1875 -1 3 C-0.67 2.01 -0.34 1.02 0 0 Z " fill="#A5A4A4" transform="translate(340,229)"/>
<path d="M0 0 C-0.33 0.66 -0.66 1.32 -1 2 C-1.66 2 -2.32 2 -3 2 C-3 2.66 -3 3.32 -3 4 C-6 3 -6 3 -8 0 C-5.13822943 -1.43088528 -3.06624227 -0.59991697 0 0 Z " fill="#181812" transform="translate(320,170)"/>
<path d="M0 0 C2.475 0.495 2.475 0.495 5 1 C5 2.32 5 3.64 5 5 C4.01 5.33 3.02 5.66 2 6 C0 3 0 3 0 0 Z " fill="#EFE3CF" transform="translate(142,123)"/>
<path d="M0 0 C1.05859375 1.8671875 1.05859375 1.8671875 2 4 C1.0625 6.125 1.0625 6.125 0 8 C0.33 8.66 0.66 9.32 1 10 C-0.98 10 -2.96 10 -5 10 C-4.01 9.67 -3.02 9.34 -2 9 C-1.19436362 6.89415562 -1.19436362 6.89415562 -0.8125 4.4375 C-0.65394531 3.61121094 -0.49539062 2.78492188 -0.33203125 1.93359375 C-0.22246094 1.29550781 -0.11289063 0.65742188 0 0 Z " fill="#C4AD97" transform="translate(96,190)"/>
<path d="M0 0 C0.99 0 1.98 0 3 0 C3 1.98 3 3.96 3 6 C1.68 5.67 0.36 5.34 -1 5 C-0.67 3.35 -0.34 1.7 0 0 Z " fill="#373734" transform="translate(310,187)"/>
<path d="M0 0 C2.0625 0.4375 2.0625 0.4375 4 1 C3.6875 2.9375 3.6875 2.9375 3 5 C2.01 5.33 1.02 5.66 0 6 C-0.38218767 4.34385343 -0.71395102 2.67542976 -1 1 C-0.67 0.67 -0.34 0.34 0 0 Z " fill="#090805" transform="translate(287,182)"/>
<path d="M0 0 C0.99 0.33 1.98 0.66 3 1 C2.67 1.99 2.34 2.98 2 4 C2.99 4.33 3.98 4.66 5 5 C3.35 5.66 1.7 6.32 0 7 C-0.33 6.34 -0.66 5.68 -1 5 C-0.34 5 0.32 5 1 5 C-0.84188612 2.94729537 -0.84188612 2.94729537 -3 2 C-2.01 1.34 -1.02 0.68 0 0 Z " fill="#D4D4D4" transform="translate(235,40)"/>
<path d="M0 0 C0.66 0 1.32 0 2 0 C2 2.31 2 4.62 2 7 C0.68 7.33 -0.64 7.66 -2 8 C-2 4.8734367 -1.4292493 3.67984243 0 1 C0 0.67 0 0.34 0 0 Z " fill="#D0D0D0" transform="translate(204,133)"/>
<path d="M0 0 C2.0625 0.4375 2.0625 0.4375 4 1 C3.01 1 2.02 1 1 1 C1.33 1.99 1.66 2.98 2 4 C0.35 4.66 -1.3 5.32 -3 6 C-1.125 1.125 -1.125 1.125 0 0 Z " fill="#DACCBD" transform="translate(129,123)"/>
<path d="M0 0 C1.98 0 3.96 0 6 0 C5.34 1.32 4.68 2.64 4 4 C2.68 3.34 1.36 2.68 0 2 C0 1.34 0 0.68 0 0 Z " fill="#DAC0A1" transform="translate(338,224)"/>
<path d="M0 0 C0.33 0 0.66 0 1 0 C2.35384615 6.27692308 2.35384615 6.27692308 0.5625 9.9375 C-0.2109375 10.9584375 -0.2109375 10.9584375 -1 12 C-1.66 11.34 -2.32 10.68 -3 10 C-2.34 9.01 -1.68 8.02 -1 7 C-0.60612212 4.67612053 -0.26513915 2.34206251 0 0 Z " fill="#B1B1B1" transform="translate(216,192)"/>
<path d="M0 0 C0.66 0.66 1.32 1.32 2 2 C4.57061311 2.64767793 4.57061311 2.64767793 7 3 C5 5 5 5 2.375 5.125 C1.59125 5.08375 0.8075 5.0425 0 5 C-0.5625 3.0625 -0.5625 3.0625 -1 1 C-0.67 0.67 -0.34 0.34 0 0 Z " fill="#D4B59A" transform="translate(290,174)"/>
<path d="M0 0 C0 0.99 0 1.98 0 3 C-3.3 2.67 -6.6 2.34 -10 2 C-10 1.67 -10 1.34 -10 1 C-3.375 0 -3.375 0 0 0 Z " fill="#C7B9A0" transform="translate(313,160)"/>
</svg>
